PathFileType	4	(X/Y/Z)	SUBJ62_2_walk_RCNL2025.trc
DataRate	CameraRate	NumFrames	NumMarkers	Units	OrigDataRate	OrigDataStartFrame	OrigNumFrames
100	100	12	25	mm	100	115	306
Frame#	Time	R_Shoulder			L_Shoulder			C7			J_Notch			R_Elbow			L_Elbow			R_Wrist			L_Wrist			R_Asis			L_Asis			Sacral			Thoracic			Sternum			R_Thigh_Lateral			R_Knee_Lateral			R_Shank_Lateral			R_Ankle_Lateral			R_Heel			R_Toe			L_Thigh_Lateral			L_Knee_Lateral			L_Shank_Lateral			L_Ankle_Lateral			L_Heel			L_Toe		
		X1	Y1	Z1	X2	Y2	Z2	X3	Y3	Z3	X4	Y4	Z4	X5	Y5	Z5	X6	Y6	Z6	X7	Y7	Z7	X8	Y8	Z8	X9	Y9	Z9	X10	Y10	Z10	X11	Y11	Z11	X12	Y12	Z12	X13	Y13	Z13	X14	Y14	Z14	X15	Y15	Z15	X16	Y16	Z16	X17	Y17	Z17	X18	Y18	Z18	X19	Y19	Z19	X20	Y20	Z20	X21	Y21	Z21	X22	Y22	Z22	X23	Y23	Z23	X24	Y24	Z24	X25	Y25	Z25
115	1.14000000	61.033833	1264.453369	-25.151840	21.222179	1273.321655	-363.406525	-28.416422	1335.289062	-193.301437	98.734421	1245.532715	-206.106979	-67.017975	996.850281	54.646305	102.881897	990.166199	-441.071045	-65.769558	774.455841	55.508883	292.055923	881.353149	-401.209152	94.998520	856.134705	-53.394089	79.578041	849.656372	-315.542297	-86.833588	854.592102	-172.025009	-93.431610	1139.052002	-181.335312	112.914322	1045.683716	-200.422852	129.757812	468.832550	20.001875	165.714172	426.376099	-52.004498	219.560516	259.624817	-9.891274	287.328674	74.668571	-79.873871	250.267197	38.908955	-126.449554	391.783844	97.093201	-83.120384	-77.463966	471.463989	-336.344208	-99.322075	413.533173	-281.304352	-144.433151	221.242371	-303.356476	-204.598999	68.201088	-228.738846	-262.594360	84.372070	-188.151535	-102.499992	37.999760	-211.774185
116	1.15000000	71.893196	1263.260620	-23.767982	31.749712	1272.283081	-362.081787	-17.697792	1334.074341	-191.879517	109.591286	1244.559692	-204.918533	-56.624466	995.670898	55.422470	114.754036	989.513428	-439.525909	-55.805861	773.297394	56.297485	304.759796	882.402771	-398.829620	107.300507	854.585754	-53.035275	90.182884	848.743164	-315.326294	-75.173332	853.514038	-170.302902	-82.262741	1137.680054	-179.819305	124.193237	1044.679810	-199.561752	140.093048	467.653107	19.638107	176.633423	425.017883	-52.114697	231.074051	258.135468	-10.195451	301.075836	74.134064	-80.482231	264.135315	38.444859	-127.110245	405.592529	96.661232	-83.662354	-69.180275	471.554871	-335.800049	-91.145981	413.593658	-280.864960	-139.646011	222.233276	-303.233551	-203.374542	70.491508	-229.064224	-261.048706	88.018326	-188.536911	-101.940224	38.111782	-211.735397
117	1.16000000	82.883621	1262.219727	-22.262085	42.426590	1271.436157	-360.621948	-6.842845	1333.009521	-190.328293	120.584129	1243.745850	-203.596085	-45.951805	994.531555	56.226116	126.396378	988.916077	-437.884094	-45.303997	772.176971	57.154655	316.909286	882.914398	-396.574524	119.683708	853.301208	-52.679893	101.031502	847.923462	-315.050049	-63.367355	852.589539	-168.695694	-70.948257	1136.457153	-178.251068	135.648254	1043.845581	-198.591888	150.643127	466.900665	19.384789	187.833786	423.804016	-52.109230	242.305191	256.638855	-10.540888	312.560730	73.098984	-81.107735	275.450562	37.826023	-127.694283	417.237152	95.008957	-84.387901	-60.381107	471.643158	-335.263000	-82.388474	413.606110	-280.446167	-134.429565	223.289780	-303.184723	-201.904709	73.024139	-229.428604	-259.234924	92.052551	-189.060974	-101.299614	38.217968	-211.712204
118	1.17000000	94.012344	1261.339722	-20.641949	53.266098	1270.791138	-359.030914	4.149154	1332.115479	-188.651825	131.718536	1243.111572	-202.141647	-34.981499	993.440552	57.060207	137.811401	988.377686	-436.156647	-34.253178	771.102203	58.095173	328.508850	882.869446	-394.472137	132.134644	852.307678	-52.299091	112.156395	847.207214	-314.686646	-51.417587	851.826721	-167.225998	-59.485516	1135.403687	-176.634552	147.282913	1043.202637	-197.508408	161.347931	466.361511	19.242388	199.312469	422.748413	-51.997978	253.339218	255.187607	-10.946460	321.946167	71.625290	-81.736069	284.432007	37.122578	-128.221893	426.870789	92.219467	-85.206497	-51.063103	471.741180	-334.729309	-73.013313	413.575806	-280.068695	-128.767929	224.422882	-303.206451	-200.157227	75.832802	-229.798523	-257.090118	96.523170	-189.686859	-100.592819	38.329586	-211.715225
119	1.18000000	105.282333	1260.628540	-18.920452	64.282448	1270.357178	-357.319824	15.275872	1331.418213	-186.858032	142.995987	1242.678711	-200.559128	-23.690748	992.403870	57.925560	149.003143	987.903259	-434.353516	-22.642594	770.080322	59.135710	339.565369	882.260345	-392.544495	144.632889	851.618958	-51.865017	123.577881	846.606567	-314.223999	-39.339100	851.237061	-165.908783	-47.877716	1134.548340	-174.975922	159.093491	1042.775513	-196.312576	172.304520	465.957489	19.246683	211.049927	421.879730	-51.779892	264.147552	253.825302	-11.405512	329.471649	69.849770	-82.345741	291.376770	36.465664	-128.704956	434.714233	88.454865	-86.027779	-41.184952	471.847626	-334.198608	-62.959473	413.497467	-279.752899	-122.624680	225.643463	-303.288849	-198.086334	78.952248	-230.130325	-254.531311	101.480621	-190.364670	-99.842247	38.454899	-211.746597
120	1.19000000	116.690453	1260.095825	-17.116751	75.488678	1270.145386	-355.507385	26.533398	1330.950928	-184.960373	154.407562	1242.469482	-198.852615	-12.052346	991.428284	58.821457	159.975449	987.501953	-432.483032	-10.460695	769.120361	60.291166	350.081467	881.090729	-390.804611	157.151932	851.246277	-51.356174	135.300568	846.141663	-313.658173	-27.158907	850.838074	-164.751434	-36.136963	1133.927612	-173.287903	171.065643	1042.589722	-195.012497	183.708420	465.753174	19.463696	222.999954	421.245056	-51.439671	274.599213	252.596786	-11.876692	335.438477	67.961456	-82.906387	296.631195	36.008896	-129.136383	441.039673	83.944580	-86.783379	-30.663933	471.946564	-333.678436	-52.141705	413.356628	-279.520691	-115.945534	226.964294	-303.420319	-195.630020	82.418236	-230.386536	-251.451797	106.972786	-191.036392	-99.072174	38.598396	-211.801178
121	1.20000000	128.225266	1259.755127	-15.256657	86.895035	1270.171631	-353.620453	37.917988	1330.750610	-182.981262	165.930206	1242.505005	-197.026978	-0.035883	990.523926	59.746181	170.730682	987.189209	-430.552582	2.305571	768.236298	61.570267	360.048309	879.372620	-389.254181	169.658691	851.208679	-50.758053	147.312210	845.844360	-312.983582	-14.910909	850.654358	-163.754150	-24.284948	1133.582886	-171.593231	183.171753	1042.669922	-193.622803	195.731918	465.893280	19.964567	235.087524	420.912231	-50.951385	284.502319	251.567780	-12.275868	340.175323	66.162453	-83.378883	300.553528	35.877682	-129.485794	446.138245	78.970078	-87.440857	-19.383577	472.011139	-333.186523	-40.456951	413.135010	-279.398804	-108.665894	228.404602	-303.592590	-192.704208	86.271385	-230.550674	-247.720520	113.038269	-191.644287	-98.302139	38.756985	-211.868790
122	1.21000000	139.864975	1259.625366	-13.371221	98.508301	1270.456909	-351.693451	49.424641	1330.850952	-180.954407	177.534012	1242.805298	-195.092300	12.388686	989.705688	60.696617	181.268677	986.987854	-428.571686	15.672210	767.448639	62.972713	369.444000	877.127014	-387.885452	182.116241	851.538635	-50.059925	159.584305	845.758362	-312.185974	-2.628263	850.714966	-162.909363	-12.350973	1133.550537	-169.925705	195.369919	1043.035156	-192.161682	208.419708	466.523376	20.796806	247.218460	420.961609	-50.288376	293.674988	250.831604	-12.484073	343.991486	64.616570	-83.721748	303.472870	36.125172	-129.706696	450.277008	73.840797	-88.004723	-7.210418	472.009705	-332.752502	-27.798664	412.817108	-279.421204	-100.718079	229.994217	-303.808228	-189.199265	90.556648	-230.629639	-243.183746	119.698975	-192.137466	-97.538841	38.912518	-211.932816
123	1.22000000	151.576645	1259.728882	-11.493346	110.330315	1271.022095	-349.763794	61.040367	1331.269775	-178.921371	189.193527	1243.386597	-193.068085	25.244686	988.992676	61.668251	191.585510	986.925964	-426.554901	29.658273	766.783356	64.488285	378.238800	874.388397	-386.686325	194.491516	852.276550	-49.251331	172.074600	845.933350	-311.240540	9.663762	851.043945	-162.201187	-0.368321	1133.847656	-168.326691	207.608185	1043.692261	-190.647659	221.659454	467.727112	21.966299	259.297729	421.458008	-49.436493	302.037842	250.474121	-12.384905	347.135040	63.408722	-83.905777	305.660889	36.717266	-129.758255	453.662537	68.854324	-88.500473	5.983134	471.911224	-332.419678	-14.076459	412.393646	-279.629974	-92.035957	231.771912	-304.089203	-184.981812	95.311539	-230.651093	-237.668289	126.949913	-192.478683	-96.766365	39.027596	-211.968643
124	1.23000000	163.319397	1260.087036	-9.653755	122.353462	1271.879150	-347.862671	72.737160	1331.994873	-176.923737	200.892685	1244.251221	-190.984802	38.541283	988.405090	62.657227	201.673630	987.029358	-424.522644	44.281767	766.266693	66.097874	386.402679	871.206055	-385.643539	206.762741	853.453064	-48.321598	184.731400	846.411133	-310.117279	21.951136	851.648132	-161.605881	11.631077	1134.457642	-166.833633	219.836090	1044.628906	-189.097931	235.232315	469.489044	23.435373	271.240051	422.403229	-48.405933	309.669006	250.514038	-11.915071	349.777771	62.539875	-83.930603	307.327271	37.556690	-129.630524	456.436462	64.249306	-88.947029	20.295034	471.687988	-332.243927	0.764652	411.860291	-280.070770	-82.558212	233.776794	-304.480103	-179.903885	100.543999	-230.663956	-230.989365	134.744949	-192.655792	-95.939583	39.056885	-211.950043
125	1.24000000	175.051056	1260.711426	-7.877343	134.553741	1273.021118	-346.007202	84.471474	1332.978760	-174.994690	212.621002	1245.379761	-188.882706	52.268341	987.958679	63.663639	211.524368	987.313416	-422.497467	59.553205	765.918152	67.776676	393.912308	867.640930	-384.742722	218.920135	855.066040	-47.263229	197.499084	847.207703	-308.790863	34.227333	852.508850	-161.091507	23.623667	1135.330444	-165.464294	232.017242	1045.809326	-187.528641	248.899017	471.687500	25.133059	282.957062	423.696472	-47.235249	316.753754	250.876114	-11.093474	352.031891	61.956799	-83.829636	308.628876	38.525841	-129.352722	458.702576	60.178852	-89.344170	35.777470	471.314056	-332.286407	16.730114	411.213257	-280.777344	-72.230919	236.036682	-305.039581	-173.830276	106.202347	-230.737457	-222.968994	142.985123	-192.694000	-94.980904	38.973835	-211.862640
126	1.25000000	186.736481	1261.594604	-6.180557	146.884903	1274.416992	-344.200439	96.192116	1334.147949	-173.154007	224.365982	1246.729004	-186.807434	66.396591	987.657349	64.693443	221.130936	987.775391	-420.500732	75.470081	765.744385	69.497618	400.756271	863.762451	-383.968292	230.959396	857.064636	-46.074909	210.322266	848.299561	-307.249359	46.482922	853.583862	-160.616562	35.598331	1136.394897	-164.207596	244.134125	1047.178711	-185.956253	262.453247	474.122864	26.967627	294.325409	425.141876	-45.984570	323.467438	251.416824	-10.016981	353.974457	61.589676	-83.659065	309.676971	39.518719	-128.979355	460.550812	56.717117	-89.693779	52.434261	470.761505	-332.599182	33.770752	410.447906	-281.751770	-61.005161	238.556641	-305.819794	-166.671814	112.161247	-230.953613	-213.464951	151.522446	-192.659775	-93.776222	38.794647	-211.718353
